<?xml version="1.0" encoding="UTF-8" standalone="no"?>
<svg width="28px" height="38px" viewBox="0 0 28 38" version="1.1" xmlns="http://www.w3.org/2000/svg" xmlns:xlink="http://www.w3.org/1999/xlink" xmlns:sketch="http://www.bohemiancoding.com/sketch/ns">
    <!-- Generator: Sketch 3.4.4 (17249) - http://www.bohemiancoding.com/sketch -->
    <title>Shape Copy 11</title>
    <desc>Created with Sketch.</desc>
    <defs></defs>
    <g id="Visual-2" stroke="none" stroke-width="1" fill="none" fill-rule="evenodd" sketch:type="MSPage">
        <path d="M20.7373469,13.8182562 C20.7373469,17.6326352 17.6033964,20.7272479 13.7374845,20.7272479 C9.87102227,20.7272479 6.73762211,17.6326352 6.73762211,13.8182562 C6.73762211,10.0027859 9.87157262,6.90926454 13.7374845,6.90926454 C17.6042219,6.90899169 20.7373469,10.002513 20.7373469,13.8182562 M28,13.8182562 C28,6.18649702 21.7323742,0 14,0 C6.26817619,0 1.77635684e-15,6.18649702 1.77635684e-15,13.8182562 C1.77635684e-15,17.1737092 1.2129646,20.2503141 3.22861018,22.6434413 L14.0121076,38 L24.9532795,22.4194352 C25.3462272,21.9340432 25.7061541,21.4224581 26.0308587,20.8846797 L26.1414785,20.7280665 L26.123317,20.7280665 C27.3148181,18.6942767 28,16.3363466 28,13.8182562" id="Shape-Copy-11" fill="#EA6105" sketch:type="MSShapeGroup"></path>
    </g>
</svg>