<?xml version="1.0" encoding="UTF-8" standalone="no"?>
<svg width="28px" height="38px" viewBox="0 0 28 38" version="1.1" xmlns="http://www.w3.org/2000/svg" xmlns:xlink="http://www.w3.org/1999/xlink" xmlns:sketch="http://www.bohemiancoding.com/sketch/ns">
    <!-- Generator: Sketch 3.5 (25232) - http://www.bohemiancoding.com/sketch -->
    <title>Shape Copy 5</title>
    <desc>Created with Sketch.</desc>
    <defs></defs>
    <g id="Visual-2" stroke="none" stroke-width="1" fill="none" fill-rule="evenodd" sketch:type="MSPage">
        <g id="Desktop-HD" sketch:type="MSArtboardGroup" transform="translate(-720.000000, -322.000000)" fill="#D99060">
            <path d="M740.737347,335.818256 C740.737347,339.632635 737.603396,342.727248 733.737485,342.727248 C729.871022,342.727248 726.737622,339.632635 726.737622,335.818256 C726.737622,332.002786 729.871573,328.909265 733.737485,328.909265 C737.604222,328.908992 740.737347,332.002513 740.737347,335.818256 M748,335.818256 C748,328.186497 741.732374,322 734,322 C726.268176,322 720,328.186497 720,335.818256 C720,339.173709 721.212965,342.250314 723.22861,344.643441 L734.012108,360 L744.953279,344.419435 C745.346227,343.934043 745.706154,343.422458 746.030859,342.88468 L746.141478,342.728066 L746.123317,342.728066 C747.314818,340.694277 748,338.336347 748,335.818256" id="Shape-Copy-5" sketch:type="MSShapeGroup"></path>
        </g>
    </g>
</svg>